PathFileType	4	(X/Y/Z)	C:/Users/opensim2020/Desktop/walking_exp_matlab/subject03_walking08_straight_01.trc	
DataRate	CameraRate	NumFrames	NumMarkers	Units	OrigDataRate	OrigDataStartFrame	OrigNumFrames	
100.00	100.00	5	51	mm	100.00	652	451	
Frame#	Time	LFHD			RFHD			LBHD			RBHD			C7			T10			CLAV			STRN			RBAK			LSHO			LUPA			LELB			LFRM			LWRA			LWRB			LFIN			RSHO			RUPA			RELB			RFRM			RWRA			RWRB			RFIN			LASI			RASI			LPSI			RPSI			LTHI			LKNE			LTIB			LANK			LHEE			LTOE			RTHI			RKNE			RTIB			RANK			RHEE			RTOE			*39			*40			*41			*42			*43			*44			*45			*46			*47			*48			*49			*50			
		X1	Y1	Z1	X2	Y2	Z2	X3	Y3	Z3	X4	Y4	Z4	X5	Y5	Z5	X6	Y6	Z6	X7	Y7	Z7	X8	Y8	Z8	X9	Y9	Z9	X10	Y10	Z10	X11	Y11	Z11	X12	Y12	Z12	X13	Y13	Z13	X14	Y14	Z14	X15	Y15	Z15	X16	Y16	Z16	X17	Y17	Z17	X18	Y18	Z18	X19	Y19	Z19	X20	Y20	Z20	X21	Y21	Z21	X22	Y22	Z22	X23	Y23	Z23	X24	Y24	Z24	X25	Y25	Z25	X26	Y26	Z26	X27	Y27	Z27	X28	Y28	Z28	X29	Y29	Z29	X30	Y30	Z30	X31	Y31	Z31	X32	Y32	Z32	X33	Y33	Z33	X34	Y34	Z34	X35	Y35	Z35	X36	Y36	Z36	X37	Y37	Z37	X38	Y38	Z38	X39	Y39	Z39	X40	Y40	Z40	X41	Y41	Z41	X42	Y42	Z42	X43	Y43	Z43	X44	Y44	Z44	X45	Y45	Z45	X46	Y46	Z46	X47	Y47	Z47	X48	Y48	Z48	X49	Y49	Z49	X50	Y50	Z50	X51	Y51	Z51	

170	1.690	-1054.35999	-457.01077	1622.17200	-922.86322	-478.02676	1624.47668	-1070.37378	-579.50635	1567.83557	-940.04327	-595.65167	1569.70422	-1015.30273	-611.63745	1414.45569	-1021.65045	-652.11230	1103.74829	-1006.17694	-491.50345	1335.50830	-1016.15045	-451.54532	1169.22009	-929.78790	-674.99683	1238.06763	-1163.61035	-521.13611	1376.22290	-1234.60205	-511.56784	1180.38440	-1243.48352	-489.28244	1059.00928	-1232.90686	-438.75882	939.43109	-1192.91479	-398.64359	830.79926	-1245.57397	-416.80380	827.64087	-1228.28711	-382.46762	752.25330	-850.07324	-551.74414	1357.59167	-786.13910	-560.57849	1133.26953	-775.28265	-545.43396	1020.74182	-775.15002	-529.85486	884.54224	-810.41949	-496.78598	789.95331	-769.53412	-531.69812	783.86938	-781.06116	-510.15555	712.21002	-1138.64868	-492.71106	929.42395	-900.76062	-484.14542	940.22852	-1083.66785	-652.01587	960.19519	-935.18073	-646.08173	971.41638	-1172.60498	-602.16357	635.81787	-1137.64734	-639.67120	462.06775	-1139.40002	-751.33313	295.98825	-1102.11658	-835.14166	101.20170	-1063.62598	-882.07062	77.15563	-1088.91443	-698.50226	28.85397	-852.95441	-507.07059	649.15845	-887.83221	-461.92166	473.36212	-877.53705	-470.68030	286.25369	-917.76642	-448.65182	69.28733	-969.20123	-490.38876	34.62434	-936.32086	-306.27527	35.78131	-1016.22125	-551.67047	1673.23218																																	 
171	1.700	-1053.01257	-450.82843	1623.35400	-921.42230	-471.62134	1625.48462	-1068.89966	-573.34479	1569.04688	-938.53650	-589.27661	1570.77271	-1013.66803	-605.08270	1415.41602	-1019.51666	-645.22186	1104.65686	-1004.94006	-484.75476	1336.68298	-1015.18781	-444.60785	1170.49548	-927.65790	-667.78308	1239.12598	-1162.06763	-514.94366	1377.66357	-1233.06519	-505.87161	1181.85803	-1242.18176	-484.88138	1060.27026	-1232.10339	-435.30743	940.15070	-1192.66553	-396.05283	830.77222	-1245.41882	-414.55246	828.18042	-1228.19189	-381.69409	751.78162	-848.70770	-544.32446	1358.74341	-784.51343	-553.22949	1134.55615	-773.61560	-538.23425	1022.02496	-773.58429	-522.50854	885.83734	-808.94043	-489.45126	791.28839	-767.95996	-524.32336	785.22351	-779.70331	-503.13763	713.27991	-1137.13623	-486.29401	930.78821	-899.39453	-476.47766	941.07336	-1081.33533	-645.29016	961.63318	-932.87744	-638.45630	972.72137	-1172.10461	-594.65887	636.51440	-1138.86389	-630.56201	462.04971	-1139.80432	-745.00793	297.41946	-1102.45251	-832.20685	104.30379	-1063.54346	-879.99353	81.74474	-1088.92053	-698.02185	28.99319	-851.84265	-502.34708	649.61627	-886.42145	-459.09741	473.26987	-876.64709	-469.27701	286.20190	-917.49310	-448.51721	69.22462	-969.03174	-490.51733	34.80584	-936.18622	-306.00467	35.45667	-1014.58423	-545.40350	1674.35522																																	 
172	1.710	-1051.64612	-444.71030	1624.38123	-920.04065	-465.28635	1626.37964	-1067.37964	-567.21802	1570.03821	-936.98120	-582.96106	1571.66968	-1012.02325	-598.61047	1416.25818	-1017.19196	-638.37994	1105.59473	-1003.69452	-478.17426	1337.75879	-1014.11731	-437.76331	1171.61133	-925.50293	-660.61749	1240.03503	-1160.61206	-508.76413	1378.86926	-1231.62085	-500.14890	1183.15161	-1240.74731	-480.28500	1061.31018	-1231.49792	-431.76358	940.72308	-1192.69104	-393.25351	830.70105	-1245.30530	-412.35577	828.52014	-1228.30518	-380.89209	751.20514	-847.34583	-537.04608	1359.92432	-782.76489	-545.80475	1135.68066	-771.80774	-530.97668	1023.16406	-771.88287	-515.15240	887.04340	-807.18835	-482.29193	792.28815	-766.21918	-516.84747	786.34058	-778.24182	-495.81525	714.34332	-1135.58862	-480.06726	932.06976	-897.96222	-469.04260	941.60278	-1078.93079	-638.74597	962.86005	-930.46295	-630.99384	973.89252	-1171.74658	-586.82269	637.02313	-1139.79785	-620.61163	461.85089	-1140.34363	-738.12573	298.81415	-1102.83130	-829.67035	107.89558	-1063.46936	-877.52203	86.60397	-1088.94836	-698.04370	28.77696	-850.69531	-497.46481	650.06061	-885.02771	-456.16159	473.13290	-875.75012	-467.77777	286.13464	-917.28741	-448.37689	69.10057	-968.78436	-490.47269	34.81939	-936.15320	-305.73727	35.10708	-1013.10541	-539.17896	1675.34973																																	 
173	1.720	-1050.37329	-438.58026	1625.33521	-918.66516	-459.02011	1627.22668	-1065.93579	-561.14502	1570.95288	-935.52710	-576.63104	1572.46985	-1010.38782	-592.23077	1416.97095	-1014.81915	-631.70428	1106.32007	-1002.64215	-471.63177	1338.67200	-1013.07379	-431.04041	1172.59326	-923.36444	-653.48383	1240.76147	-1159.25476	-502.75751	1379.89380	-1230.19238	-494.46237	1184.21716	-1239.39478	-475.64868	1062.21899	-1231.07593	-428.17477	941.10510	-1192.97375	-390.38425	830.45068	-1245.18359	-410.07968	828.61426	-1228.63550	-380.10516	750.49579	-846.02112	-529.69043	1360.79565	-781.05109	-538.33063	1136.70081	-770.00220	-523.64130	1024.17407	-770.07166	-507.63367	888.03467	-805.57813	-474.70139	793.42480	-764.43945	-509.20447	787.32458	-776.30090	-488.54510	715.27448	-1134.04370	-474.00140	933.23291	-896.61914	-462.09506	941.89014	-1076.43054	-632.28656	963.80115	-928.09595	-623.64282	974.86096	-1171.50391	-578.59241	637.28754	-1141.19177	-610.07935	461.38068	-1140.96204	-730.72778	300.12265	-1102.86621	-826.17932	111.52632	-1063.42017	-874.61029	91.59364	-1088.85645	-697.50848	28.96869	-849.50299	-492.43082	650.46130	-883.70752	-453.15350	473.00839	-874.82782	-466.16199	286.10095	-917.12946	-448.23956	68.98535	-968.55048	-490.45398	34.86401	-936.06897	-305.46371	34.80282	-1011.63367	-533.02979	1676.24536																																	 
174	1.730	-1049.17126	-432.53769	1626.18115	-917.37073	-452.69742	1627.93445	-1064.49097	-555.03894	1571.69873	-934.06500	-570.29413	1573.09692	-1008.80176	-585.87506	1417.55432	-1012.35858	-625.12073	1106.77673	-1001.49036	-465.17468	1339.44617	-1012.11609	-424.42419	1173.41797	-921.08862	-646.60895	1241.36865	-1157.96912	-496.86487	1380.69495	-1228.84595	-488.76288	1185.01086	-1238.31995	-470.95285	1062.93237	-1230.77258	-424.49924	941.28339	-1193.38391	-387.38785	830.04401	-1245.64905	-407.69559	828.71283	-1229.13672	-379.21286	749.67780	-844.66492	-522.36188	1361.55090	-779.29565	-530.67999	1137.50781	-768.12622	-516.07471	1025.02722	-768.20087	-500.02026	888.93683	-803.80841	-467.10641	794.49194	-762.53662	-501.47461	788.17133	-774.79297	-480.63742	716.09534	-1132.39258	-468.07532	934.16083	-895.09192	-454.65366	942.16510	-1073.99182	-626.33160	964.40131	-925.69952	-616.46558	975.58636	-1171.40259	-569.98962	637.29828	-1142.79785	-598.98676	460.72379	-1141.71985	-722.82306	301.35291	-1102.94849	-822.95850	115.70512	-1063.29517	-871.43945	97.06944	-1088.70923	-696.88538	29.27494	-848.15527	-487.20053	650.79413	-882.38464	-450.06860	472.88623	-873.85339	-464.47784	286.06586	-917.02856	-448.02008	68.84671	-968.30151	-490.40765	34.92267	-936.01184	-305.17258	34.43765	-1010.13550	-526.95459	1676.96216																																	 
